<svg xmlns="http://www.w3.org/2000/svg" width="40" height="40" viewBox="0 0 40 40"><g><g><g><g><path fill="#ebe7f2" d="M5.818 23.268h28.364v2.124H5.818z"/></g><g><path fill="#ebe7f2" d="M20 35.608c-9.901 0-18.028-7.595-18.874-17.277-.047.55-.072 1.107-.072 1.669 0 10.464 8.482 18.946 18.946 18.946 10.464 0 18.946-8.482 18.946-18.946 0-.562-.025-1.119-.072-1.669C38.028 28.013 29.9 35.608 20 35.608z"/></g><g><path fill="#846f75" d="M33.628 24.838H6.372v-9.676h27.256zm1.108.554V14.608a.554.554 0 0 0-.554-.554H5.818a.554.554 0 0 0-.554.554v10.784c0 .306.248.554.554.554h28.364a.554.554 0 0 0 .554-.554zM24.023 37.949c2.004-1.624 3.695-4.45 4.803-8.13 1.936.53 3.688 1.238 5.17 2.102a18.413 18.413 0 0 1-9.973 6.028zM6.005 31.92c1.48-.864 3.233-1.572 5.169-2.102 1.108 3.68 2.8 6.506 4.804 8.13a18.411 18.411 0 0 1-9.973-6.028zm9.973-29.87c-2.004 1.624-3.696 4.45-4.804 8.13-1.936-.53-3.688-1.238-5.169-2.102a18.412 18.412 0 0 1 9.973-6.028zm18.017 6.028c-1.48.865-3.233 1.572-5.17 2.102-1.109-3.68-2.802-6.507-4.807-8.13a18.412 18.412 0 0 1 9.977 6.028zm-14.54-6.436V11.3c-2.53-.036-4.972-.329-7.203-.846 1.548-5.07 4.266-8.437 7.203-8.811zm1.108.002c2.927.386 5.64 3.75 7.185 8.809-2.226.516-4.661.808-7.185.846zm0 36.71V28.7c2.524.038 4.959.33 7.185.847-1.544 5.06-4.255 8.423-7.185 8.808zm-1.108.002c-2.937-.374-5.656-3.74-7.203-8.81 2.231-.519 4.672-.81 7.203-.847zm9.588-11.76a.554.554 0 0 0-.654.431 29.17 29.17 0 0 1-.34 1.453c-2.487-.582-5.218-.893-8.04-.893H20c-2.825 0-5.56.31-8.05.893a29.166 29.166 0 0 1-.335-1.439.555.555 0 0 0-1.086.226c.106.508.222 1.003.347 1.486-2.09.573-3.981 1.345-5.571 2.294a18.294 18.294 0 0 1-3.689-10.494H4.01a.554.554 0 1 0 0-1.108H1.616A18.294 18.294 0 0 1 5.304 8.952c1.59.948 3.481 1.721 5.572 2.294-.126.483-.242.978-.347 1.486a.554.554 0 0 0 1.085.226c.102-.492.215-.972.336-1.44 2.49.584 5.225.894 8.05.894h.009c2.821 0 5.552-.31 8.04-.893.116.445.224.902.322 1.37a.554.554 0 1 0 1.084-.228 31.24 31.24 0 0 0-.331-1.415c2.09-.573 3.98-1.345 5.571-2.293a18.293 18.293 0 0 1 3.688 10.493h-2.392a.554.554 0 1 0 0 1.108h2.392a18.292 18.292 0 0 1-3.688 10.494c-1.59-.948-3.48-1.721-5.571-2.294.126-.487.243-.988.349-1.5a.553.553 0 0 0-.43-.656zM39.5 20c0-4.545-1.563-8.731-4.18-12.05a.544.544 0 0 0-.118-.148C31.627 3.351 26.14.5 20 .5 13.86.5 8.374 3.352 4.797 7.801a.558.558 0 0 0-.118.149A19.405 19.405 0 0 0 .5 20c0 4.545 1.563 8.732 4.18 12.052a.58.58 0 0 0 .116.145C8.373 36.647 13.86 39.5 20 39.5c6.14 0 11.627-2.853 15.204-7.303a.563.563 0 0 0 .115-.145A19.404 19.404 0 0 0 39.5 20z"/></g><g><g><path fill="#cd171f" d="M11.418 19.64c-.277-.157-.663-.302-1.181-.444-.548-.15-.815-.3-.942-.4a.486.486 0 0 1-.204-.413c0-.195.073-.336.236-.46.185-.139.45-.21.789-.21.345 0 .606.083.798.254.182.163.268.367.268.645 0 .183.148.332.332.332h.46a.332.332 0 0 0 .333-.332 1.86 1.86 0 0 0-1.08-1.708 2.506 2.506 0 0 0-1.111-.242c-.602 0-1.11.153-1.508.456-.427.324-.643.753-.643 1.274 0 .53.239.981.689 1.303.292.211.727.396 1.33.565.64.18.916.336 1.035.434.134.111.196.256.196.456a.539.539 0 0 1-.246.472c-.196.143-.472.215-.82.215-.395 0-.71-.088-.934-.262-.203-.157-.298-.36-.298-.64a.332.332 0 0 0-.333-.333h-.457a.332.332 0 0 0-.332.333c0 .383.102.73.303 1.029.2.298.493.531.87.693.359.153.756.231 1.181.231.63 0 1.15-.153 1.549-.454.426-.323.642-.757.642-1.291 0-.333-.08-.63-.241-.881a1.91 1.91 0 0 0-.681-.621z"/></g><g><path fill="#cd171f" d="M19.395 16.736h-.469a.332.332 0 0 0-.322.253l-.86 3.478-1.016-3.49a.332.332 0 0 0-.319-.24h-.412a.332.332 0 0 0-.319.238l-1.026 3.483-.868-3.47a.332.332 0 0 0-.322-.252h-.469a.333.333 0 0 0-.322.415l1.383 5.413c.038.147.17.25.322.25h.439a.333.333 0 0 0 .318-.238l1.072-3.61 1.045 3.608c.041.143.171.24.32.24h.438a.332.332 0 0 0 .322-.25l1.387-5.413a.332.332 0 0 0-.322-.415z"/></g><g><path fill="#cd171f" d="M21.29 16.736h-.457a.332.332 0 0 0-.332.333v5.413c0 .184.148.332.332.332h.457a.332.332 0 0 0 .332-.332v-5.413a.332.332 0 0 0-.332-.333z"/></g><g><path fill="#cd171f" d="M26.57 16.736h-3.354a.332.332 0 0 0-.333.333v5.413c0 .184.15.332.333.332h.457a.332.332 0 0 0 .332-.332v-2.2h2.192a.332.332 0 0 0 .333-.332v-.387a.332.332 0 0 0-.333-.332h-2.192v-1.443h2.564a.332.332 0 0 0 .332-.333v-.386a.332.332 0 0 0-.332-.333z"/></g><g><path fill="#cd171f" d="M31.703 16.736h-4.164a.332.332 0 0 0-.332.333v.386c0 .184.148.333.332.333h1.519v4.694c0 .184.149.332.332.332h.457a.332.332 0 0 0 .333-.332v-4.694h1.523a.332.332 0 0 0 .332-.333v-.386a.332.332 0 0 0-.332-.333z"/></g></g></g></g></g></svg>